<?xml version="1.0" standalone="no"?>
<!DOCTYPE svg PUBLIC "-//W3C//DTD SVG 20010904//EN"
 "http://www.w3.org/TR/2001/REC-SVG-20010904/DTD/svg10.dtd">
<svg version="1.0" xmlns="http://www.w3.org/2000/svg"
 width="512.000000pt" height="512.000000pt" viewBox="0 0 512.000000 512.000000"
 preserveAspectRatio="xMidYMid meet">
<metadata>
Created by potrace 1.16, written by Peter Selinger 2001-2019
</metadata>
<g transform="translate(0.000000,512.000000) scale(0.100000,-0.100000)"
fill="#000000" stroke="none">
<path d="M2470 4610 l0 -90 135 0 135 0 0 90 0 90 -135 0 -135 0 0 -90z"/>
<path d="M2900 4610 l0 -90 645 0 645 0 0 90 0 90 -645 0 -645 0 0 -90z"/>
<path d="M3045 4182 c-11 -2 -461 -139 -1000 -303 -844 -257 -983 -302 -1002
-324 -23 -26 -23 -29 -23 -336 l0 -309 -170 0 -170 0 0 -90 0 -90 430 0 430 0
0 90 0 90 -170 0 -170 0 0 231 c0 216 1 231 17 224 10 -3 123 -43 251 -87
l232 -81 0 -369 c0 -402 1 -412 57 -437 58 -27 380 -154 420 -167 32 -10 51
-10 73 -2 58 20 60 32 60 413 0 190 3 345 8 345 4 0 153 -51 332 -114 l325
-113 3 -971 2 -972 -127 45 c-71 25 -470 164 -888 309 l-760 264 -7 33 c-12
63 -74 94 -131 68 -34 -16 -47 -49 -47 -125 0 -71 9 -98 41 -114 11 -6 466
-166 1012 -356 671 -234 999 -343 1015 -339 23 6 1880 731 1965 767 26 12 52
29 57 39 11 20 14 2116 4 2144 -4 8 -18 22 -33 29 -14 8 -249 82 -521 165
-272 83 -576 178 -675 211 -99 33 -188 60 -198 60 -11 0 -144 38 -296 84 -303
92 -317 95 -346 88z m167 -224 c76 -22 138 -44 138 -47 0 -3 -346 -131 -768
-284 l-767 -278 -190 67 c-104 36 -195 69 -202 73 -9 5 1600 505 1641 510 5 1
71 -18 148 -41z m561 -170 c59 -18 107 -35 107 -38 0 -3 -361 -130 -803 -283
l-802 -278 -92 33 -92 33 772 281 c425 155 779 282 787 283 8 0 63 -13 123
-31z m688 -210 c148 -45 266 -84 264 -87 -3 -3 -377 -134 -829 -292 l-824
-287 -252 88 c-138 48 -253 90 -255 92 -3 3 1600 565 1618 567 5 1 130 -36
278 -81z m475 -2065 c-4 -4 -1718 -676 -1754 -687 l-22 -7 2 966 3 967 885
307 885 308 3 -925 c1 -509 0 -927 -2 -929z m-2886 1529 l75 -30 3 -286 c1
-157 1 -286 -1 -286 -2 0 -57 22 -123 48 l-119 48 -3 287 -2 287 47 -19 c27
-10 82 -32 123 -49z"/>
<path d="M4147 3068 c-21 -7 -57 -54 -138 -175 -61 -90 -112 -170 -115 -178
-4 -8 17 -29 55 -54 85 -58 86 -58 115 -14 l26 38 0 -108 0 -107 90 0 90 0 0
185 0 185 60 -30 c33 -16 61 -30 63 -30 6 0 81 160 76 164 -11 11 -273 136
-283 135 -6 0 -24 -5 -39 -11z"/>
<path d="M3534 2806 c-21 -15 -250 -354 -243 -360 6 -5 123 -82 136 -90 7 -4
22 8 37 31 l26 38 0 -108 0 -107 90 0 90 0 0 185 c0 102 2 185 5 185 3 0 28
-11 55 -25 27 -14 54 -25 60 -25 10 0 80 131 80 150 0 15 -256 140 -288 140
-15 0 -37 -6 -48 -14z"/>
<path d="M250 2820 l0 -90 135 0 135 0 0 90 0 90 -135 0 -135 0 0 -90z"/>
<path d="M1064 2638 c-36 -17 -44 -52 -44 -193 l0 -135 -255 0 -255 0 0 -90 0
-90 600 0 600 0 0 90 0 90 -255 0 -255 0 0 141 0 141 -29 29 c-31 31 -68 37
-107 17z"/>
<path d="M0 2220 l0 -90 175 0 175 0 0 90 0 90 -175 0 -175 0 0 -90z"/>
<path d="M1046 2024 c-25 -25 -26 -32 -26 -125 l0 -99 -170 0 -170 0 0 -90 0
-90 730 0 730 0 0 90 0 90 -470 0 -470 0 0 91 c0 122 -21 158 -91 159 -26 0
-44 -7 -63 -26z"/>
<path d="M250 1710 l0 -90 135 0 135 0 0 90 0 90 -135 0 -135 0 0 -90z"/>
<path d="M510 510 l0 -90 130 0 130 0 0 90 0 90 -130 0 -130 0 0 -90z"/>
<path d="M930 510 l0 -90 645 0 645 0 0 90 0 90 -645 0 -645 0 0 -90z"/>
</g>
</svg>
