<?xml version="1.0" standalone="no"?>
<!DOCTYPE svg PUBLIC "-//W3C//DTD SVG 20010904//EN"
 "http://www.w3.org/TR/2001/REC-SVG-20010904/DTD/svg10.dtd">
<svg version="1.0" xmlns="http://www.w3.org/2000/svg"
 width="512.000000pt" height="512.000000pt" viewBox="0 0 512.000000 512.000000"
 preserveAspectRatio="xMidYMid meet">
<metadata>
Created by potrace 1.16, written by Peter Selinger 2001-2019
</metadata>
<g transform="translate(0.000000,512.000000) scale(0.100000,-0.100000)"
fill="#000000" stroke="none">
<path d="M1250 5105 c-653 -112 -1141 -609 -1239 -1262 -15 -100 -15 -2466 0
-2566 99 -662 604 -1167 1266 -1266 100 -15 2466 -15 2566 0 662 99 1167 604
1266 1266 15 100 15 2466 0 2566 -99 662 -604 1167 -1266 1266 -111 17 -2494
13 -2593 -4z m2580 -408 c230 -51 410 -147 565 -302 161 -162 264 -361 306
-595 20 -110 20 -2370 0 -2480 -75 -414 -358 -741 -746 -863 -171 -53 -142
-52 -1395 -52 -1253 0 -1224 -1 -1395 52 -333 105 -603 375 -708 708 -53 171
-52 142 -52 1395 0 1253 -1 1224 52 1395 122 388 466 685 863 744 120 18 122
18 1305 16 1010 -2 1138 -4 1205 -18z"/>
<path d="M3862 4139 c-62 -31 -95 -86 -100 -165 -8 -124 61 -204 184 -212 124
-8 204 61 212 184 5 81 -22 143 -81 182 -56 37 -154 42 -215 11z"/>
<path d="M2324 3924 c-148 -25 -342 -96 -469 -172 -242 -145 -450 -378 -558
-627 -83 -190 -117 -354 -117 -565 0 -211 34 -375 117 -565 131 -301 397 -567
698 -698 190 -83 354 -117 565 -117 211 0 375 34 565 117 301 131 567 397 698
698 83 190 117 354 117 565 0 319 -91 591 -281 840 -212 278 -530 470 -872
525 -113 18 -352 18 -463 -1z m486 -424 c176 -51 311 -130 436 -254 126 -127
204 -261 256 -441 20 -69 23 -102 23 -245 0 -182 -13 -249 -77 -395 -93 -211
-282 -400 -493 -493 -146 -64 -213 -77 -395 -77 -182 0 -249 13 -395 77 -211
93 -400 282 -493 493 -64 146 -77 213 -77 395 0 143 3 176 23 245 52 180 130
314 256 441 127 126 268 208 436 253 111 30 113 30 275 26 118 -2 166 -7 225
-25z"/>
</g>
</svg>
