<?xml version="1.0" standalone="no"?>
<!DOCTYPE svg PUBLIC "-//W3C//DTD SVG 20010904//EN"
 "http://www.w3.org/TR/2001/REC-SVG-20010904/DTD/svg10.dtd">
<svg version="1.0" xmlns="http://www.w3.org/2000/svg"
 width="512.000000pt" height="512.000000pt" viewBox="0 0 512.000000 512.000000"
 preserveAspectRatio="xMidYMid meet">
<metadata>
Created by potrace 1.16, written by Peter Selinger 2001-2019
</metadata>
<g transform="translate(0.000000,512.000000) scale(0.100000,-0.100000)"
fill="#000000" stroke="none">
<path d="M207 5105 c-53 -20 -113 -66 -148 -113 -63 -86 -59 58 -59 -2011 l0
-1886 29 -60 c35 -75 100 -136 175 -164 l57 -21 1309 0 1310 0 0 110 0 110
-1301 2 -1301 3 -29 33 -29 32 0 1846 0 1846 34 34 34 34 2272 0 2272 0 34
-34 34 -34 0 -1846 0 -1846 -29 -32 -29 -33 -131 -4 -131 -3 0 -109 0 -109
140 0 c118 0 148 3 197 21 75 29 143 93 177 168 l26 59 -2 1898 -3 1899 -23
47 c-30 60 -90 120 -150 150 l-47 23 -2325 2 c-1980 1 -2331 0 -2363 -12z"/>
<path d="M530 4480 l0 -110 110 0 110 0 0 110 0 110 -110 0 -110 0 0 -110z"/>
<path d="M1113 4570 c-34 -20 -43 -43 -62 -159 -14 -85 -54 -164 -116 -226
-62 -62 -141 -102 -226 -116 -116 -19 -139 -28 -159 -62 -19 -31 -20 -58 -20
-1020 0 -1066 -2 -1027 52 -1055 12 -7 56 -16 96 -21 129 -16 243 -85 312
-189 35 -53 70 -158 70 -209 0 -51 27 -99 65 -117 29 -14 116 -16 734 -16
l701 0 0 110 0 110 -641 2 -642 3 -17 60 c-61 221 -243 397 -467 455 l-43 11
0 858 0 858 56 12 c206 46 409 249 455 455 l12 56 1287 0 1287 0 12 -56 c46
-206 249 -409 455 -455 l56 -12 0 -434 0 -433 110 0 110 0 0 498 c0 475 -1
498 -20 529 -20 34 -43 43 -159 62 -174 28 -314 168 -342 342 -19 116 -28 139
-62 159 -31 20 -62 20 -1447 20 -1385 0 -1416 0 -1447 -20z"/>
<path d="M4370 4480 l0 -110 110 0 110 0 0 110 0 110 -110 0 -110 0 0 -110z"/>
<path d="M1443 4044 c-57 -29 -63 -56 -63 -308 0 -173 3 -235 14 -261 29 -69
-44 -65 1166 -65 1210 0 1137 -4 1166 65 21 52 20 474 -2 520 -32 69 36 65
-1166 65 -963 0 -1087 -2 -1115 -16z m2077 -309 l0 -105 -960 0 -960 0 0 105
0 105 960 0 960 0 0 -105z"/>
<path d="M1280 2990 l0 -110 110 0 110 0 0 110 0 110 -110 0 -110 0 0 -110z"/>
<path d="M1700 2990 l0 -110 110 0 110 0 0 110 0 110 -110 0 -110 0 0 -110z"/>
<path d="M3575 2873 c-47 -7 -165 -43 -228 -69 -259 -109 -473 -359 -549 -644
-32 -123 -32 -358 1 -480 42 -158 110 -281 228 -417 l63 -72 0 -556 c0 -390 3
-563 11 -578 29 -57 105 -75 164 -38 17 10 129 97 250 194 189 152 221 174
235 163 8 -7 117 -95 243 -195 218 -174 229 -181 272 -181 35 0 52 6 77 29
l33 29 3 573 3 573 58 61 c110 115 200 286 237 450 25 109 25 302 0 410 -78
346 -333 619 -673 721 -76 23 -109 27 -243 29 -85 2 -168 1 -185 -2z m387
-251 c122 -41 189 -84 289 -182 146 -144 208 -284 216 -485 6 -152 -11 -238
-72 -360 -92 -185 -243 -316 -440 -382 -70 -23 -96 -27 -215 -27 -115 -1 -146
3 -210 22 -210 66 -373 205 -465 397 -52 109 -68 184 -68 315 0 131 16 206 68
315 101 211 285 356 520 411 100 23 271 12 377 -24z m-517 -1621 l100 -35 185
0 c173 0 191 2 273 27 49 15 102 34 119 43 16 8 32 14 34 11 2 -2 3 -162 2
-355 l-3 -352 -188 150 c-172 137 -191 150 -228 150 -22 0 -50 -5 -62 -12 -12
-6 -99 -74 -194 -150 l-173 -139 0 357 c0 336 1 356 18 348 9 -4 62 -23 117
-43z"/>
<path d="M3626 2448 c-97 -18 -193 -72 -270 -151 -114 -117 -156 -217 -156
-377 0 -160 42 -260 156 -377 80 -82 173 -133 278 -152 176 -32 348 21 474
148 108 108 162 234 162 381 0 147 -54 275 -162 382 -128 127 -305 180 -482
146z m230 -242 c138 -64 213 -203 184 -343 -22 -107 -84 -183 -188 -231 -45
-20 -65 -23 -130 -20 -94 4 -154 32 -216 98 -154 165 -89 421 129 507 54 21
164 16 221 -11z"/>
<path d="M1280 2560 l0 -110 640 0 640 0 0 110 0 110 -640 0 -640 0 0 -110z"/>
<path d="M530 1490 l0 -110 110 0 110 0 0 110 0 110 -110 0 -110 0 0 -110z"/>
</g>
</svg>
