<?xml version="1.0" standalone="no"?>
<!DOCTYPE svg PUBLIC "-//W3C//DTD SVG 20010904//EN"
 "http://www.w3.org/TR/2001/REC-SVG-20010904/DTD/svg10.dtd">
<svg version="1.0" xmlns="http://www.w3.org/2000/svg"
 width="512.000000pt" height="512.000000pt" viewBox="0 0 512.000000 512.000000"
 preserveAspectRatio="xMidYMid meet">
<metadata>
Created by potrace 1.16, written by Peter Selinger 2001-2019
</metadata>
<g transform="translate(0.000000,512.000000) scale(0.100000,-0.100000)"
fill="#000000" stroke="none">
<path d="M2500 5104 c-39 -14 -210 -181 -1248 -1218 -879 -878 -1208 -1213
-1225 -1246 -32 -64 -32 -216 0 -275 12 -23 279 -297 617 -635 l596 -595 0
-442 c0 -426 1 -444 21 -500 15 -41 37 -73 73 -109 84 -82 96 -84 471 -84
l322 0 26 25 c43 44 43 106 0 149 l-25 25 -302 3 c-271 3 -305 5 -329 21 -16
10 -32 29 -37 43 -6 16 -10 434 -10 1080 l0 1056 28 28 c19 19 43 30 73 35 24
3 775 5 1669 3 1764 -3 1651 1 1682 -57 19 -36 19 -2116 0 -2152 -30 -57 22
-54 -1020 -59 l-964 -5 -24 -28 c-35 -41 -33 -99 5 -138 l29 -29 984 0 983 0
51 24 c65 30 120 85 150 150 l24 51 0 1110 0 1110 -24 51 c-31 66 -85 120
-155 153 l-56 26 -524 3 -524 3 255 257 c233 234 257 262 273 311 23 71 17
189 -13 246 -26 51 -1553 1576 -1602 1601 -49 25 -190 29 -250 8z m239 -279
l86 -85 -1223 -1222 -1222 -1223 -85 86 c-139 141 -280 -31 1098 1346 1377
1378 1205 1237 1346 1098z m839 -838 c582 -583 592 -593 592 -632 0 -38 -8
-48 -317 -357 l-318 -318 -289 0 -290 0 116 118 c68 68 119 129 123 145 17 68
-30 127 -103 127 l-45 0 -196 -195 -197 -195 -119 0 -119 0 271 273 c232 233
272 277 278 309 14 74 -50 137 -123 123 -32 -6 -87 -56 -387 -356 l-351 -349
-189 0 -190 0 541 543 c298 298 549 553 558 567 25 38 20 85 -13 122 -25 28
-36 33 -74 33 l-44 0 -993 -988 -993 -989 -86 86 -86 86 1220 1220 c671 671
1222 1220 1225 1220 3 0 272 -267 598 -593z m-2338 -2174 l0 -378 -190 190
-190 190 187 187 c103 104 189 188 190 188 2 0 3 -170 3 -377z"/>
<path d="M2978 4212 c-15 -2 -39 -17 -53 -33 -59 -71 -13 -169 78 -169 94 0
137 107 71 174 -26 25 -52 33 -96 28z"/>
<path d="M1767 2292 l-27 -28 0 -276 0 -275 26 -27 27 -26 407 0 407 0 27 26
26 27 0 276 0 277 -28 27 -28 27 -405 0 -405 0 -27 -28z m693 -307 l0 -125
-260 0 -260 0 0 125 0 125 260 0 260 0 0 -125z"/>
<path d="M1774 1406 c-45 -45 -47 -92 -5 -138 l29 -33 352 0 352 0 29 33 c45
51 36 122 -21 155 -25 15 -69 17 -365 17 l-337 0 -34 -34z"/>
<path d="M2818 1425 c-70 -39 -64 -146 9 -184 27 -14 660 -15 697 -1 62 23 80
120 32 169 l-26 26 -343 2 c-288 2 -346 0 -369 -12z"/>
<path d="M3865 1429 c-59 -33 -75 -115 -31 -162 13 -14 35 -29 48 -32 12 -3
173 -5 355 -3 l333 3 26 27 c39 38 39 108 0 146 l-26 27 -343 2 c-238 2 -348
-1 -362 -8z"/>
<path d="M3906 1088 c-83 -11 -158 -49 -219 -110 -62 -64 -95 -127 -110 -214
-13 -78 0 -170 35 -241 32 -66 111 -143 183 -178 51 -25 73 -30 155 -32 71 -3
108 1 145 14 48 17 52 17 105 -1 84 -28 217 -20 295 19 80 38 149 110 188 193
29 61 32 76 32 163 0 90 -2 99 -38 171 -53 109 -135 178 -246 208 -64 17 -171
14 -233 -7 -47 -16 -59 -17 -87 -6 -49 20 -139 29 -205 21z m49 -250 c-33 -83
-29 -210 10 -300 16 -40 -95 -8 -137 39 -25 28 -48 88 -48 125 1 48 33 111 72
141 30 23 106 49 117 41 2 -2 -4 -22 -14 -46z m483 5 c39 -30 71 -93 72 -141
0 -37 -23 -97 -48 -125 -42 -47 -153 -79 -137 -39 18 41 35 120 35 162 0 40
-10 88 -35 167 -7 20 -5 21 36 12 24 -6 59 -22 77 -36z"/>
<path d="M2497 175 c-13 -14 -27 -37 -29 -50 -14 -72 30 -125 102 -125 72 0
116 53 102 125 -2 13 -16 36 -29 50 -36 36 -110 36 -146 0z"/>
</g>
</svg>
