<?xml version="1.0" standalone="no"?>
<!DOCTYPE svg PUBLIC "-//W3C//DTD SVG 20010904//EN"
 "http://www.w3.org/TR/2001/REC-SVG-20010904/DTD/svg10.dtd">
<svg version="1.0" xmlns="http://www.w3.org/2000/svg"
 width="512.000000pt" height="512.000000pt" viewBox="0 0 512.000000 512.000000"
 preserveAspectRatio="xMidYMid meet">
<metadata>
Created by potrace 1.16, written by Peter Selinger 2001-2019
</metadata>
<g transform="translate(0.000000,512.000000) scale(0.100000,-0.100000)"
fill="#000000" stroke="none">
<path d="M884 5101 c-96 -33 -148 -73 -324 -250 -266 -267 -375 -429 -470
-696 -65 -184 -90 -330 -90 -540 0 -381 104 -688 337 -1003 57 -78 1928 -1963
2150 -2167 216 -199 456 -331 723 -400 224 -58 530 -60 775 -6 192 43 430 156
601 284 130 97 429 392 469 461 88 152 88 329 1 482 -18 31 -161 182 -385 405
-333 333 -361 359 -431 393 -114 55 -236 64 -357 28 -70 -22 -137 -75 -324
-258 -171 -167 -203 -194 -253 -213 -75 -28 -166 -28 -243 0 -55 20 -92 56
-734 698 -538 538 -681 686 -700 726 -20 42 -24 65 -24 145 0 80 4 102 24 140
13 26 103 126 211 235 162 166 192 200 223 265 67 135 67 271 1 410 -33 71
-55 95 -392 431 -363 363 -402 395 -510 431 -72 23 -208 23 -278 -1z m204
-305 c15 -8 179 -167 365 -354 361 -361 363 -363 346 -441 -5 -23 -29 -56 -73
-100 l-66 -66 -418 418 -417 418 71 69 c68 66 74 70 118 70 26 0 59 -6 74 -14z
m318 -1233 c-141 -196 -157 -478 -39 -693 30 -55 142 -171 742 -771 679 -679
709 -707 781 -742 217 -105 469 -88 661 43 l56 38 418 -418 418 -418 -74 -52
c-230 -162 -476 -242 -749 -243 -276 -2 -500 65 -740 221 -73 47 -239 209
-1163 1131 -593 592 -1105 1110 -1137 1151 -117 152 -196 318 -241 505 -87
362 -8 750 215 1062 l51 72 419 -418 418 -418 -36 -50z m2664 -1763 c27 -7
115 -90 388 -363 l352 -353 0 -47 c0 -61 -15 -89 -84 -157 l-56 -55 -421 420
-420 420 65 62 c54 51 93 75 136 82 3 1 21 -3 40 -9z"/>
</g>
</svg>
