<?xml version="1.0" standalone="no"?>
<!DOCTYPE svg PUBLIC "-//W3C//DTD SVG 20010904//EN"
 "http://www.w3.org/TR/2001/REC-SVG-20010904/DTD/svg10.dtd">
<svg version="1.0" xmlns="http://www.w3.org/2000/svg"
 width="512.000000pt" height="512.000000pt" viewBox="0 0 512.000000 512.000000"
 preserveAspectRatio="xMidYMid meet">
<metadata>
Created by potrace 1.16, written by Peter Selinger 2001-2019
</metadata>
<g transform="translate(0.000000,512.000000) scale(0.100000,-0.100000)"
fill="#000000" stroke="none">
<path d="M1140 4309 c-423 -12 -570 -30 -684 -82 -219 -101 -361 -396 -420
-876 -30 -242 -38 -474 -33 -908 5 -418 11 -528 42 -744 61 -423 199 -699 397
-797 129 -63 252 -78 768 -92 468 -13 2236 -13 2705 0 516 14 657 32 778 97
163 89 292 322 356 641 52 258 71 533 71 1012 0 608 -35 946 -126 1220 -78
234 -187 381 -330 447 -120 55 -239 68 -739 83 -388 11 -2386 11 -2785 -1z
m1594 -1284 c421 -253 766 -462 766 -465 0 -4 -1489 -901 -1556 -938 l-24 -13
0 951 0 951 24 -13 c13 -7 368 -220 790 -473z"/>
</g>
</svg>
