<?xml version="1.0" standalone="no"?>
<!DOCTYPE svg PUBLIC "-//W3C//DTD SVG 20010904//EN"
 "http://www.w3.org/TR/2001/REC-SVG-20010904/DTD/svg10.dtd">
<svg version="1.0" xmlns="http://www.w3.org/2000/svg"
 width="452.000000pt" height="452.000000pt" viewBox="0 0 452.000000 452.000000"
 preserveAspectRatio="xMidYMid meet">
<metadata>
Created by potrace 1.16, written by Peter Selinger 2001-2019
</metadata>
<g transform="translate(0.000000,452.000000) scale(0.100000,-0.100000)"
fill="#000000" stroke="none">
<path d="M0 2260 l0 -2260 1583 0 c1306 1 1576 3 1546 14 -20 7 -52 22 -70 34
-19 12 -487 475 -1040 1029 -973 974 -1007 1010 -1029 1068 -30 81 -25 188 13
260 19 38 269 293 1044 1066 885 884 1024 1019 1063 1032 41 14 -100 15 -1532
16 l-1578 1 0 -2260z"/>
<path d="M3343 4506 c90 -32 163 -107 193 -199 23 -68 15 -186 -15 -247 -16
-32 -274 -296 -899 -923 l-877 -877 877 -878 c628 -629 883 -890 899 -922 28
-56 37 -171 19 -235 -25 -88 -108 -177 -197 -210 -33 -12 35 -14 570 -14 l607
-1 0 2260 0 2260 -607 0 c-524 -1 -603 -3 -570 -14z"/>
</g>
</svg>
