<?xml version="1.0" standalone="no"?>
<!DOCTYPE svg PUBLIC "-//W3C//DTD SVG 20010904//EN"
 "http://www.w3.org/TR/2001/REC-SVG-20010904/DTD/svg10.dtd">
<svg version="1.0" xmlns="http://www.w3.org/2000/svg"
 width="452.000000pt" height="452.000000pt" viewBox="0 0 452.000000 452.000000"
 preserveAspectRatio="xMidYMid meet">
<metadata>
Created by potrace 1.16, written by Peter Selinger 2001-2019
</metadata>
<g transform="translate(0.000000,452.000000) scale(0.100000,-0.100000)"
fill="#000000" stroke="none">
<path d="M0 2260 l0 -2260 608 1 c534 0 602 2 569 14 -89 33 -172 122 -197
210 -18 64 -9 179 19 235 16 32 271 293 899 922 l877 878 -877 877 c-625 627
-883 891 -899 923 -30 61 -38 179 -15 247 30 92 103 167 193 199 33 11 -46 13
-569 14 l-608 0 0 -2260z"/>
<path d="M1410 4503 c39 -13 178 -148 1063 -1032 775 -773 1025 -1028 1044
-1066 38 -72 43 -179 13 -260 -22 -58 -56 -94 -1029 -1068 -553 -554 -1021
-1017 -1040 -1029 -18 -12 -50 -27 -70 -34 -30 -11 240 -13 1547 -14 l1582 0
0 2260 0 2260 -1577 -1 c-1433 -1 -1574 -2 -1533 -16z"/>
</g>
</svg>
